<svg width="60" height="60" viewBox="0 0 60 60" fill="none" xmlns="http://www.w3.org/2000/svg">
<path fill-rule="evenodd" clip-rule="evenodd" d="M18.1325 10.6375C19.1949 8.38847 20.8745 6.48767 22.9755 5.15648C25.0766 3.82529 27.5127 3.11853 30 3.11853C32.4873 3.11853 34.9234 3.82529 37.0244 5.15648C39.1255 6.48767 40.8051 8.38847 41.8675 10.6375C45.1144 10.4935 48.3142 11.4541 50.945 13.3626C53.5757 15.271 55.4822 18.0146 56.3532 21.1457C57.2242 24.2769 57.0085 27.6109 55.7412 30.6037C54.4739 33.5965 52.2298 36.0715 49.375 37.625V45.13C49.375 47.3775 49.375 49.25 49.175 50.735C48.965 52.305 48.5 53.7225 47.36 54.86C46.2225 56 44.805 56.465 43.235 56.675C41.75 56.875 39.875 56.875 37.63 56.875H22.37C20.125 56.875 18.25 56.875 16.765 56.675C15.195 56.465 13.7775 56 12.64 54.86C11.5 53.7225 11.035 52.305 10.825 50.735C10.625 49.25 10.625 47.3775 10.625 45.13V37.6275C7.77022 36.074 5.52612 33.599 4.25881 30.6062C2.99149 27.6134 2.77576 24.2794 3.6468 21.1482C4.51784 18.0171 6.42425 15.2735 9.05501 13.3651C11.6858 11.4566 14.8856 10.4935 18.1325 10.6375ZM17.0075 14.39C14.611 14.5007 12.3225 15.4193 10.5144 16.9962C8.70634 18.573 7.48517 20.7154 7.04961 23.0746C6.61405 25.4338 6.98974 27.871 8.11555 29.9896C9.24135 32.1081 11.051 33.7833 13.25 34.7425C13.5842 34.8883 13.8687 35.1285 14.0685 35.4335C14.2683 35.7386 14.3748 36.0953 14.375 36.46V43.125H45.625V36.46C45.6252 36.0953 45.7317 35.7386 45.9315 35.4335C46.1313 35.1285 46.4158 34.8883 46.75 34.7425C48.9482 33.7824 50.757 32.1068 51.8821 29.9883C53.0073 27.8699 53.3827 25.433 52.9472 23.0741C52.5118 20.7153 51.2911 18.5731 49.4838 16.9959C47.6764 15.4188 45.3886 14.4995 42.9925 14.3875C43.0808 14.9958 43.125 15.6166 43.125 16.25V17.5C43.125 17.9972 42.9275 18.4742 42.5758 18.8258C42.2242 19.1774 41.7473 19.375 41.25 19.375C40.7527 19.375 40.2758 19.1774 39.9242 18.8258C39.5725 18.4742 39.375 17.9972 39.375 17.5V16.25C39.3763 15.0184 39.1347 13.7988 38.664 12.6607C38.1934 11.5227 37.5029 10.4887 36.6321 9.6179C35.7612 8.74708 34.7272 8.05658 33.5892 7.58591C32.4512 7.11523 31.2315 6.87364 30 6.87496C27.5136 6.87496 25.129 7.86268 23.3709 9.62083C21.6127 11.379 20.625 13.7636 20.625 16.25V17.5C20.625 17.9972 20.4275 18.4742 20.0758 18.8258C19.7242 19.1774 19.2473 19.375 18.75 19.375C18.2527 19.375 17.7758 19.1774 17.4242 18.8258C17.0725 18.4742 16.875 17.9972 16.875 17.5V16.25C16.875 15.6166 16.9192 14.9983 17.0075 14.39ZM45.62 46.875H14.38C14.39 48.3 14.425 49.375 14.5425 50.2375C14.6975 51.39 14.965 51.885 15.2925 52.21C15.62 52.535 16.11 52.8025 17.2625 52.96C18.47 53.12 20.09 53.125 22.5 53.125H37.5C39.91 53.125 41.53 53.12 42.7375 52.9575C43.89 52.8025 44.385 52.535 44.71 52.2075C45.035 51.88 45.3025 51.39 45.46 50.2375C45.575 49.3725 45.61 48.2975 45.62 46.875Z" fill="#FF7E00"/>
</svg>
